<?xml version="1.0" standalone="no"?>
<!DOCTYPE svg PUBLIC "-//W3C//DTD SVG 20010904//EN"
 "http://www.w3.org/TR/2001/REC-SVG-20010904/DTD/svg10.dtd">
<svg version="1.0" xmlns="http://www.w3.org/2000/svg"
 width="240.000000pt" height="240.000000pt" viewBox="0 0 240.000000 240.000000"
 preserveAspectRatio="xMidYMid meet">
<metadata>
Created by potrace 1.11, written by Peter Selinger 2001-2013
</metadata>
<g transform="translate(0.000000,240.000000) scale(0.100000,-0.100000)"
fill="#000000" stroke="none">
<path d="M167 2384 c-63 -20 -128 -84 -150 -149 -15 -44 -17 -143 -17 -1030 0
-1070 -1 -1046 56 -1115 14 -17 47 -43 73 -58 l46 -27 999 -3 c1130 -3 1072
-6 1150 72 80 80 76 15 76 1121 0 1070 1 1046 -56 1115 -14 17 -47 43 -73 58
l-46 27 -1005 2 c-868 2 -1012 0 -1053 -13z"/>
</g>
</svg>
